<svg xmlns="http://www.w3.org/2000/svg" width="984" height="984" preserveAspectRatio="xMidYMid meet" version="1.0" viewBox="0 0 738 738"><metadata>Created by potrace 1.11, written by Peter Selinger 2001-2013</metadata><g fill="#000" stroke="none"><path d="M4645 7358 c-16 -5 -104 -29 -195 -53 -165 -45 -220 -60 -274 -76 -15 -5 -32 -6 -37 -3 -5 3 -9 1 -9 -4 0 -5 -6 -9 -12 -10 -7 0 -22 -3 -33 -6 -11 -3 -87 -23 -170 -45 -82 -22 -177 -48 -210 -57 -33 -9 -67 -18 -75 -20 -20 -5 -67 -17 -165 -44 -44 -12 -89 -24 -101 -26 -12 -2 -40 -11 -64 -19 -24 -8 -45 -13 -47 -11 -3 2 -20 -2 -39 -10 -19 -8 -36 -14 -39 -14 -3 0 -6 0 -7 -1 -18 -5 -47 -11 -64 -13 -11 -1 -25 -5 -31 -9 -6 -4 -37 -13 -69 -21 -33 -8 -135 -35 -227 -60 -93 -25 -178 -48 -190 -50 -12 -3 -96 -26 -187 -51 -91 -25 -174 -47 -185 -49 -11 -3 -20 -5 -20 -6 0 -1 -7 -3 -15 -5 -8 -1 -42 -10 -75 -19 -33 -9 -67 -18 -75 -20 -8 -2 -93 -25 -189 -51 -95 -26 -183 -48 -194 -51 -11 -2 -34 -8 -52 -14 -18 -6 -41 -13 -51 -15 -74 -17 -271 -72 -281 -78 -7 -5 -13 -6 -13 -4 0 3 -39 -6 -87 -19 -49 -14 -96 -27 -106 -29 -45 -10 -55 -18 -62 -48 -4 -18 -9 -36 -11 -42 -6 -18 -36 -130 -39 -145 -2 -8 -13 -51 -25 -95 -12 -44 -24 -86 -25 -95 -2 -8 -4 -15 -5 -15 -1 0 -69 -253 -76 -282 -2 -12 -9 -34 -14 -48 -5 -14 -7 -25 -4 -25 4 0 1 -7 -6 -15 -7 -8 -10 -15 -6 -15 3 0 1 -11 -4 -25 -5 -14 -12 -36 -14 -48 -2 -12 -32 -123 -66 -247 -34 -124 -63 -233 -65 -243 -2 -10 -7 -27 -10 -37 -3 -10 -8 -28 -10 -39 -3 -12 -7 -30 -9 -41 -3 -11 -7 -24 -10 -28 -3 -5 -7 -19 -10 -33 -5 -21 -14 -57 -31 -121 -3 -10 -7 -28 -10 -39 -2 -12 -9 -36 -15 -54 -6 -18 -13 -42 -15 -54 -3 -11 -7 -29 -10 -38 -2 -10 -11 -43 -19 -73 -8 -30 -22 -82 -31 -115 -14 -51 -33 -123 -49 -185 -2 -8 -10 -35 -17 -60 -7 -25 -13 -49 -15 -55 -1 -5 -19 -71 -39 -145 -20 -74 -38 -146 -41 -160 -8 -37 -10 -43 -17 -60 -6 -13 -44 -160 -52 -200 -2 -8 -8 -28 -15 -45 -6 -16 -11 -32 -11 -35 0 -3 -4 -23 -10 -45 -6 -22 -13 -48 -15 -58 -2 -10 -6 -27 -9 -37 -3 -10 -8 -27 -10 -37 -4 -18 -76 -287 -94 -353 -6 -19 -11 -38 -11 -42 -1 -4 -6 -22 -11 -40 -22 -73 -26 -66 129 -220 81 -81 687 -687 1346 -1347 1108 -1108 1201 -1199 1223 -1190 13 5 34 11 46 13 12 3 56 14 97 26 41 11 82 22 90 24 142 36 188 48 200 53 8 3 20 7 25 8 6 2 64 17 130 34 66 18 128 34 138 36 9 2 21 7 27 10 5 3 22 8 37 10 16 2 60 13 98 24 180 49 302 82 325 87 14 2 36 9 50 14 14 5 86 25 160 44 192 49 326 85 390 103 30 9 62 18 70 19 8 1 46 11 83 23 38 11 81 22 95 25 15 3 61 15 102 27 41 11 82 22 90 24 8 2 30 8 48 14 17 5 32 7 32 4 0 -3 7 0 15 7 8 7 15 10 15 7 0 -4 18 0 40 8 22 8 42 14 45 15 3 0 6 0 8 1 9 3 45 11 57 13 8 1 42 11 75 20 49 15 276 76 335 91 8 2 50 13 92 25 43 11 85 23 95 25 53 12 244 65 251 68 4 3 24 8 45 11 21 3 46 10 55 15 9 4 32 11 50 14 18 4 57 14 86 22 l54 16 23 92 c13 51 23 94 24 97 0 3 3 10 6 15 4 6 10 26 14 45 4 19 18 76 32 125 14 50 27 98 29 108 2 10 6 27 9 37 3 10 8 27 10 37 2 10 14 52 25 93 11 41 22 82 24 90 2 8 10 35 17 60 7 25 13 50 15 55 1 6 7 28 13 50 6 22 11 43 11 47 1 4 6 22 11 40 6 18 12 40 14 48 2 8 13 50 25 93 12 43 24 89 26 103 3 14 11 44 18 67 8 23 18 58 22 77 11 48 11 50 14 53 1 1 3 9 5 17 1 8 17 67 34 130 18 63 34 122 35 130 8 33 49 186 53 200 3 8 7 22 9 30 1 8 10 42 19 75 9 33 18 67 20 75 2 8 13 49 25 90 12 41 23 84 26 95 2 11 27 103 55 205 54 198 56 209 64 241 2 12 12 47 21 78 9 31 18 64 20 74 2 10 6 27 9 37 3 10 8 27 10 37 2 10 16 61 30 113 75 277 117 434 119 444 1 6 5 17 9 24 5 6 6 12 3 12 -3 0 1 18 9 40 8 22 14 42 15 45 0 3 0 6 1 8 12 39 -20 72 -1337 1388 -739 739 -1346 1344 -1347 1345 -1 1 -15 -3 -32 -8z" transform="translate(0.000000,738.000000) scale(0.100000,-0.100000)"/></g></svg>